<svg width="575" height="335" viewBox="0 0 575 335" fill="none" xmlns="http://www.w3.org/2000/svg">
<g filter="url(#filter0_d_16096_3436)">
<rect x="37" y="37" width="501" height="261" rx="40" fill="white"/>
<g clip-path="url(#clip0_16096_3436)">
<circle cx="114.5" cy="114.5" r="36.5" stroke="#0C2836" stroke-width="2"/>
<path d="M86.7984 110.098H89.1444L91.6054 118.424H91.6514L94.2504 110.098H96.5274L99.1724 118.424H99.2184L101.679 110.098H103.956L100.345 121H98.0914L95.4004 112.812H95.3544L92.6864 121H90.4324L86.7984 110.098ZM106.427 110.098H108.773L111.234 118.424H111.28L113.879 110.098H116.156L118.801 118.424H118.847L121.308 110.098H123.585L119.974 121H117.72L115.029 112.812H114.983L112.315 121H110.061L106.427 110.098ZM126.057 110.098H128.403L130.864 118.424H130.91L133.509 110.098H135.786L138.431 118.424H138.477L140.938 110.098H143.215L139.604 121H137.35L134.659 112.812H134.613L131.945 121H129.691L126.057 110.098Z" fill="#0C2836"/>
</g>
<path d="M79.124 197V184.4H83.84C84.908 184.4 85.826 184.574 86.594 184.922C87.362 185.258 87.95 185.75 88.358 186.398C88.778 187.034 88.988 187.808 88.988 188.72C88.988 189.608 88.778 190.376 88.358 191.024C87.95 191.66 87.362 192.152 86.594 192.5C85.826 192.848 84.908 193.022 83.84 193.022H79.862L80.456 192.392V197H79.124ZM80.456 192.5L79.862 191.852H83.804C85.064 191.852 86.018 191.582 86.666 191.042C87.326 190.49 87.656 189.716 87.656 188.72C87.656 187.712 87.326 186.932 86.666 186.38C86.018 185.828 85.064 185.552 83.804 185.552H79.862L80.456 184.922V192.5ZM97.184 197V194.912L97.13 194.57V191.078C97.13 190.274 96.902 189.656 96.446 189.224C96.002 188.792 95.336 188.576 94.448 188.576C93.836 188.576 93.254 188.678 92.702 188.882C92.15 189.086 91.682 189.356 91.298 189.692L90.722 188.738C91.202 188.33 91.778 188.018 92.45 187.802C93.122 187.574 93.83 187.46 94.574 187.46C95.798 187.46 96.74 187.766 97.4 188.378C98.072 188.978 98.408 189.896 98.408 191.132V197H97.184ZM93.926 197.09C93.218 197.09 92.6 196.976 92.072 196.748C91.556 196.508 91.16 196.184 90.884 195.776C90.608 195.356 90.47 194.876 90.47 194.336C90.47 193.844 90.584 193.4 90.812 193.004C91.052 192.596 91.436 192.272 91.964 192.032C92.504 191.78 93.224 191.654 94.124 191.654H97.382V192.608H94.16C93.248 192.608 92.612 192.77 92.252 193.094C91.904 193.418 91.73 193.82 91.73 194.3C91.73 194.84 91.94 195.272 92.36 195.596C92.78 195.92 93.368 196.082 94.124 196.082C94.844 196.082 95.462 195.92 95.978 195.596C96.506 195.26 96.89 194.78 97.13 194.156L97.418 195.038C97.178 195.662 96.758 196.16 96.158 196.532C95.57 196.904 94.826 197.09 93.926 197.09ZM104.155 197.108C103.471 197.108 102.793 197.012 102.121 196.82C101.449 196.628 100.855 196.334 100.339 195.938L100.753 194.984C101.209 195.32 101.737 195.578 102.337 195.758C102.937 195.926 103.531 196.01 104.119 196.01C104.707 195.998 105.217 195.914 105.649 195.758C106.081 195.602 106.417 195.386 106.657 195.11C106.897 194.834 107.017 194.522 107.017 194.174C107.017 193.67 106.789 193.28 106.333 193.004C105.877 192.716 105.253 192.572 104.461 192.572H102.841V191.636H104.371C104.839 191.636 105.253 191.576 105.613 191.456C105.973 191.336 106.249 191.162 106.441 190.934C106.645 190.706 106.747 190.436 106.747 190.124C106.747 189.788 106.627 189.5 106.387 189.26C106.159 189.02 105.841 188.84 105.433 188.72C105.025 188.6 104.563 188.54 104.047 188.54C103.579 188.552 103.093 188.624 102.589 188.756C102.085 188.876 101.587 189.062 101.095 189.314L100.735 188.324C101.287 188.036 101.833 187.82 102.373 187.676C102.925 187.52 103.477 187.442 104.029 187.442C104.785 187.418 105.463 187.508 106.063 187.712C106.675 187.916 107.161 188.21 107.521 188.594C107.881 188.966 108.061 189.416 108.061 189.944C108.061 190.412 107.917 190.82 107.629 191.168C107.341 191.516 106.957 191.786 106.477 191.978C105.997 192.17 105.451 192.266 104.839 192.266L104.893 191.924C105.973 191.924 106.813 192.134 107.413 192.554C108.025 192.974 108.331 193.544 108.331 194.264C108.331 194.828 108.145 195.326 107.773 195.758C107.401 196.178 106.897 196.508 106.261 196.748C105.637 196.988 104.935 197.108 104.155 197.108ZM116.11 197.09C115.294 197.09 114.556 196.904 113.896 196.532C113.236 196.148 112.708 195.602 112.312 194.894C111.928 194.174 111.736 193.298 111.736 192.266C111.736 191.234 111.928 190.364 112.312 189.656C112.696 188.936 113.218 188.39 113.878 188.018C114.538 187.646 115.282 187.46 116.11 187.46C117.01 187.46 117.814 187.664 118.522 188.072C119.242 188.468 119.806 189.032 120.214 189.764C120.622 190.484 120.826 191.318 120.826 192.266C120.826 193.226 120.622 194.066 120.214 194.786C119.806 195.506 119.242 196.07 118.522 196.478C117.814 196.886 117.01 197.09 116.11 197.09ZM111.232 200.492V187.55H112.456V190.394L112.33 192.284L112.51 194.192V200.492H111.232ZM116.02 195.956C116.692 195.956 117.292 195.806 117.82 195.506C118.348 195.194 118.768 194.762 119.08 194.21C119.392 193.646 119.548 192.998 119.548 192.266C119.548 191.534 119.392 190.892 119.08 190.34C118.768 189.788 118.348 189.356 117.82 189.044C117.292 188.732 116.692 188.576 116.02 188.576C115.348 188.576 114.742 188.732 114.202 189.044C113.674 189.356 113.254 189.788 112.942 190.34C112.642 190.892 112.492 191.534 112.492 192.266C112.492 192.998 112.642 193.646 112.942 194.21C113.254 194.762 113.674 195.194 114.202 195.506C114.742 195.806 115.348 195.956 116.02 195.956ZM129.387 197V194.912L129.333 194.57V191.078C129.333 190.274 129.105 189.656 128.649 189.224C128.205 188.792 127.539 188.576 126.651 188.576C126.039 188.576 125.457 188.678 124.905 188.882C124.353 189.086 123.885 189.356 123.501 189.692L122.925 188.738C123.405 188.33 123.981 188.018 124.653 187.802C125.325 187.574 126.033 187.46 126.777 187.46C128.001 187.46 128.943 187.766 129.603 188.378C130.275 188.978 130.611 189.896 130.611 191.132V197H129.387ZM126.129 197.09C125.421 197.09 124.803 196.976 124.275 196.748C123.759 196.508 123.363 196.184 123.087 195.776C122.811 195.356 122.673 194.876 122.673 194.336C122.673 193.844 122.787 193.4 123.015 193.004C123.255 192.596 123.639 192.272 124.167 192.032C124.707 191.78 125.427 191.654 126.327 191.654H129.585V192.608H126.363C125.451 192.608 124.815 192.77 124.455 193.094C124.107 193.418 123.933 193.82 123.933 194.3C123.933 194.84 124.143 195.272 124.563 195.596C124.983 195.92 125.571 196.082 126.327 196.082C127.047 196.082 127.665 195.92 128.181 195.596C128.709 195.26 129.093 194.78 129.333 194.156L129.621 195.038C129.381 195.662 128.961 196.16 128.361 196.532C127.773 196.904 127.029 197.09 126.129 197.09ZM138.261 197.108C137.493 197.108 136.809 196.982 136.209 196.73C135.621 196.478 135.117 196.094 134.697 195.578C134.277 195.062 133.959 194.426 133.743 193.67C133.527 192.902 133.419 192.014 133.419 191.006C133.419 190.106 133.503 189.32 133.671 188.648C133.839 187.964 134.073 187.376 134.373 186.884C134.673 186.392 135.021 185.978 135.417 185.642C135.825 185.294 136.263 185.018 136.731 184.814C137.211 184.598 137.703 184.436 138.207 184.328L142.455 183.338L142.671 184.526L138.675 185.426C138.423 185.486 138.117 185.57 137.757 185.678C137.409 185.786 137.049 185.948 136.677 186.164C136.317 186.38 135.981 186.68 135.669 187.064C135.357 187.448 135.105 187.946 134.913 188.558C134.733 189.158 134.643 189.908 134.643 190.808C134.643 191 134.649 191.156 134.661 191.276C134.673 191.384 134.685 191.504 134.697 191.636C134.721 191.756 134.739 191.936 134.751 192.176L134.193 191.708C134.325 190.976 134.595 190.34 135.003 189.8C135.411 189.248 135.921 188.822 136.533 188.522C137.157 188.21 137.847 188.054 138.603 188.054C139.479 188.054 140.259 188.246 140.943 188.63C141.627 189.002 142.161 189.524 142.545 190.196C142.941 190.868 143.139 191.648 143.139 192.536C143.139 193.412 142.935 194.198 142.527 194.894C142.131 195.59 141.567 196.136 140.835 196.532C140.103 196.916 139.245 197.108 138.261 197.108ZM138.405 196.046C139.077 196.046 139.671 195.896 140.187 195.596C140.703 195.284 141.105 194.864 141.393 194.336C141.693 193.808 141.843 193.214 141.843 192.554C141.843 191.906 141.693 191.33 141.393 190.826C141.105 190.322 140.703 189.926 140.187 189.638C139.671 189.338 139.071 189.188 138.387 189.188C137.715 189.188 137.121 189.332 136.605 189.62C136.089 189.896 135.681 190.286 135.381 190.79C135.093 191.294 134.949 191.876 134.949 192.536C134.949 193.196 135.093 193.79 135.381 194.318C135.681 194.846 136.089 195.266 136.605 195.578C137.133 195.89 137.733 196.046 138.405 196.046ZM151.694 197V194.912L151.64 194.57V191.078C151.64 190.274 151.412 189.656 150.956 189.224C150.512 188.792 149.846 188.576 148.958 188.576C148.346 188.576 147.764 188.678 147.212 188.882C146.66 189.086 146.192 189.356 145.808 189.692L145.232 188.738C145.712 188.33 146.288 188.018 146.96 187.802C147.632 187.574 148.34 187.46 149.084 187.46C150.308 187.46 151.25 187.766 151.91 188.378C152.582 188.978 152.918 189.896 152.918 191.132V197H151.694ZM148.436 197.09C147.728 197.09 147.11 196.976 146.582 196.748C146.066 196.508 145.67 196.184 145.394 195.776C145.118 195.356 144.98 194.876 144.98 194.336C144.98 193.844 145.094 193.4 145.322 193.004C145.562 192.596 145.946 192.272 146.474 192.032C147.014 191.78 147.734 191.654 148.634 191.654H151.892V192.608H148.67C147.758 192.608 147.122 192.77 146.762 193.094C146.414 193.418 146.24 193.82 146.24 194.3C146.24 194.84 146.45 195.272 146.87 195.596C147.29 195.92 147.878 196.082 148.634 196.082C149.354 196.082 149.972 195.92 150.488 195.596C151.016 195.26 151.4 194.78 151.64 194.156L151.928 195.038C151.688 195.662 151.268 196.16 150.668 196.532C150.08 196.904 149.336 197.09 148.436 197.09ZM158.12 197V188.324L158.444 188.666H154.538V187.55H162.98V188.666H159.074L159.398 188.324V197H158.12ZM174.044 197V187.55H175.322V197H174.044ZM168.806 190.88C169.994 190.892 170.9 191.156 171.524 191.672C172.148 192.188 172.46 192.932 172.46 193.904C172.46 194.912 172.124 195.686 171.452 196.226C170.78 196.766 169.82 197.03 168.572 197.018L164.828 197V187.55H166.106V190.844L168.806 190.88ZM168.482 196.046C169.37 196.058 170.036 195.884 170.48 195.524C170.936 195.152 171.164 194.612 171.164 193.904C171.164 193.196 170.942 192.68 170.498 192.356C170.054 192.02 169.382 191.846 168.482 191.834L166.106 191.798V196.01L168.482 196.046ZM178.961 197V187.55H183.137C184.205 187.55 185.045 187.754 185.657 188.162C186.281 188.57 186.593 189.17 186.593 189.962C186.593 190.73 186.299 191.324 185.711 191.744C185.123 192.152 184.349 192.356 183.389 192.356L183.641 191.978C184.769 191.978 185.597 192.188 186.125 192.608C186.653 193.028 186.917 193.634 186.917 194.426C186.917 195.242 186.617 195.878 186.017 196.334C185.429 196.778 184.511 197 183.263 197H178.961ZM180.203 195.992H183.209C184.013 195.992 184.619 195.866 185.027 195.614C185.447 195.35 185.657 194.93 185.657 194.354C185.657 193.778 185.471 193.358 185.099 193.094C184.727 192.83 184.139 192.698 183.335 192.698H180.203V195.992ZM180.203 191.744H183.047C183.779 191.744 184.337 191.606 184.721 191.33C185.117 191.054 185.315 190.652 185.315 190.124C185.315 189.596 185.117 189.2 184.721 188.936C184.337 188.672 183.779 188.54 183.047 188.54H180.203V191.744ZM195.78 197V194.912L195.726 194.57V191.078C195.726 190.274 195.498 189.656 195.042 189.224C194.598 188.792 193.932 188.576 193.044 188.576C192.432 188.576 191.85 188.678 191.298 188.882C190.746 189.086 190.278 189.356 189.894 189.692L189.318 188.738C189.798 188.33 190.374 188.018 191.046 187.802C191.718 187.574 192.426 187.46 193.17 187.46C194.394 187.46 195.336 187.766 195.996 188.378C196.668 188.978 197.004 189.896 197.004 191.132V197H195.78ZM192.522 197.09C191.814 197.09 191.196 196.976 190.668 196.748C190.152 196.508 189.756 196.184 189.48 195.776C189.204 195.356 189.066 194.876 189.066 194.336C189.066 193.844 189.18 193.4 189.408 193.004C189.648 192.596 190.032 192.272 190.56 192.032C191.1 191.78 191.82 191.654 192.72 191.654H195.978V192.608H192.756C191.844 192.608 191.208 192.77 190.848 193.094C190.5 193.418 190.326 193.82 190.326 194.3C190.326 194.84 190.536 195.272 190.956 195.596C191.376 195.92 191.964 196.082 192.72 196.082C193.44 196.082 194.058 195.92 194.574 195.596C195.102 195.26 195.486 194.78 195.726 194.156L196.014 195.038C195.774 195.662 195.354 196.16 194.754 196.532C194.166 196.904 193.422 197.09 192.522 197.09ZM204.456 197.09C203.472 197.09 202.608 196.886 201.864 196.478C201.12 196.058 200.538 195.488 200.118 194.768C199.698 194.036 199.488 193.202 199.488 192.266C199.488 191.33 199.686 190.502 200.082 189.782C200.49 189.062 201.042 188.498 201.738 188.09C202.446 187.67 203.238 187.46 204.114 187.46C205.002 187.46 205.788 187.664 206.472 188.072C207.168 188.468 207.714 189.032 208.11 189.764C208.506 190.484 208.704 191.318 208.704 192.266C208.704 192.326 208.698 192.392 208.686 192.464C208.686 192.524 208.686 192.59 208.686 192.662H200.46V191.708H208.002L207.498 192.086C207.498 191.402 207.348 190.796 207.048 190.268C206.76 189.728 206.364 189.308 205.86 189.008C205.356 188.708 204.774 188.558 204.114 188.558C203.466 188.558 202.884 188.708 202.368 189.008C201.852 189.308 201.45 189.728 201.162 190.268C200.874 190.808 200.73 191.426 200.73 192.122V192.32C200.73 193.04 200.886 193.676 201.198 194.228C201.522 194.768 201.966 195.194 202.53 195.506C203.106 195.806 203.76 195.956 204.492 195.956C205.068 195.956 205.602 195.854 206.094 195.65C206.598 195.446 207.03 195.134 207.39 194.714L208.11 195.542C207.69 196.046 207.162 196.43 206.526 196.694C205.902 196.958 205.212 197.09 204.456 197.09ZM211.533 197V187.55H212.829L217.113 194.804H216.573L220.929 187.55H222.117V197H220.947V189.008L221.181 189.116L217.113 195.848H216.537L212.433 189.044L212.703 188.99V197H211.533ZM230.464 197V187.55H234.64C235.708 187.55 236.548 187.754 237.16 188.162C237.784 188.57 238.096 189.17 238.096 189.962C238.096 190.73 237.802 191.324 237.214 191.744C236.626 192.152 235.852 192.356 234.892 192.356L235.144 191.978C236.272 191.978 237.1 192.188 237.628 192.608C238.156 193.028 238.42 193.634 238.42 194.426C238.42 195.242 238.12 195.878 237.52 196.334C236.932 196.778 236.014 197 234.766 197H230.464ZM231.706 195.992H234.712C235.516 195.992 236.122 195.866 236.53 195.614C236.95 195.35 237.16 194.93 237.16 194.354C237.16 193.778 236.974 193.358 236.602 193.094C236.23 192.83 235.642 192.698 234.838 192.698H231.706V195.992ZM231.706 191.744H234.55C235.282 191.744 235.84 191.606 236.224 191.33C236.62 191.054 236.818 190.652 236.818 190.124C236.818 189.596 236.62 189.2 236.224 188.936C235.84 188.672 235.282 188.54 234.55 188.54H231.706V191.744ZM250.632 197V187.55H251.91V197H250.632ZM245.394 190.88C246.582 190.892 247.488 191.156 248.112 191.672C248.736 192.188 249.048 192.932 249.048 193.904C249.048 194.912 248.712 195.686 248.04 196.226C247.368 196.766 246.408 197.03 245.16 197.018L241.416 197V187.55H242.694V190.844L245.394 190.88ZM245.07 196.046C245.958 196.058 246.624 195.884 247.068 195.524C247.524 195.152 247.752 194.612 247.752 193.904C247.752 193.196 247.53 192.68 247.086 192.356C246.642 192.02 245.97 191.846 245.07 191.834L242.694 191.798V196.01L245.07 196.046ZM259.508 197.09C258.572 197.09 257.732 196.886 256.988 196.478C256.256 196.058 255.68 195.488 255.26 194.768C254.84 194.036 254.63 193.202 254.63 192.266C254.63 191.318 254.84 190.484 255.26 189.764C255.68 189.044 256.256 188.48 256.988 188.072C257.732 187.664 258.572 187.46 259.508 187.46C260.312 187.46 261.038 187.616 261.686 187.928C262.334 188.24 262.844 188.708 263.216 189.332L262.262 189.98C261.938 189.5 261.536 189.146 261.056 188.918C260.576 188.69 260.054 188.576 259.49 188.576C258.818 188.576 258.212 188.732 257.672 189.044C257.132 189.344 256.706 189.77 256.394 190.322C256.082 190.874 255.926 191.522 255.926 192.266C255.926 193.01 256.082 193.658 256.394 194.21C256.706 194.762 257.132 195.194 257.672 195.506C258.212 195.806 258.818 195.956 259.49 195.956C260.054 195.956 260.576 195.842 261.056 195.614C261.536 195.386 261.938 195.038 262.262 194.57L263.216 195.218C262.844 195.83 262.334 196.298 261.686 196.622C261.038 196.934 260.312 197.09 259.508 197.09ZM269.421 197.09C268.509 197.09 267.687 196.886 266.955 196.478C266.235 196.058 265.665 195.488 265.245 194.768C264.825 194.036 264.615 193.202 264.615 192.266C264.615 191.318 264.825 190.484 265.245 189.764C265.665 189.044 266.235 188.48 266.955 188.072C267.675 187.664 268.497 187.46 269.421 187.46C270.357 187.46 271.185 187.664 271.905 188.072C272.637 188.48 273.207 189.044 273.615 189.764C274.035 190.484 274.245 191.318 274.245 192.266C274.245 193.202 274.035 194.036 273.615 194.768C273.207 195.488 272.637 196.058 271.905 196.478C271.173 196.886 270.345 197.09 269.421 197.09ZM269.421 195.956C270.105 195.956 270.711 195.806 271.239 195.506C271.767 195.194 272.181 194.762 272.481 194.21C272.793 193.646 272.949 192.998 272.949 192.266C272.949 191.522 272.793 190.874 272.481 190.322C272.181 189.77 271.767 189.344 271.239 189.044C270.711 188.732 270.111 188.576 269.439 188.576C268.767 188.576 268.167 188.732 267.639 189.044C267.111 189.344 266.691 189.77 266.379 190.322C266.067 190.874 265.911 191.522 265.911 192.266C265.911 192.998 266.067 193.646 266.379 194.21C266.691 194.762 267.111 195.194 267.639 195.506C268.167 195.806 268.761 195.956 269.421 195.956ZM283.906 197L280.018 192.32L281.08 191.69L285.418 197H283.906ZM276.976 197V187.55H278.254V197H276.976ZM277.858 192.788V191.69H280.9V192.788H277.858ZM281.188 192.41L280 192.23L283.762 187.55H285.148L281.188 192.41ZM290.989 197.09C290.077 197.09 289.255 196.886 288.523 196.478C287.803 196.058 287.233 195.488 286.813 194.768C286.393 194.036 286.183 193.202 286.183 192.266C286.183 191.318 286.393 190.484 286.813 189.764C287.233 189.044 287.803 188.48 288.523 188.072C289.243 187.664 290.065 187.46 290.989 187.46C291.925 187.46 292.753 187.664 293.473 188.072C294.205 188.48 294.775 189.044 295.183 189.764C295.603 190.484 295.813 191.318 295.813 192.266C295.813 193.202 295.603 194.036 295.183 194.768C294.775 195.488 294.205 196.058 293.473 196.478C292.741 196.886 291.913 197.09 290.989 197.09ZM290.989 195.956C291.673 195.956 292.279 195.806 292.807 195.506C293.335 195.194 293.749 194.762 294.049 194.21C294.361 193.646 294.517 192.998 294.517 192.266C294.517 191.522 294.361 190.874 294.049 190.322C293.749 189.77 293.335 189.344 292.807 189.044C292.279 188.732 291.679 188.576 291.007 188.576C290.335 188.576 289.735 188.732 289.207 189.044C288.679 189.344 288.259 189.77 287.947 190.322C287.635 190.874 287.479 191.522 287.479 192.266C287.479 192.998 287.635 193.646 287.947 194.21C288.259 194.762 288.679 195.194 289.207 195.506C289.735 195.806 290.329 195.956 290.989 195.956ZM298.545 197V187.55H307.041V197H305.763V188.324L306.087 188.666H299.499L299.823 188.324V197H298.545ZM315.551 197.09C314.735 197.09 313.997 196.904 313.337 196.532C312.677 196.148 312.149 195.602 311.753 194.894C311.369 194.174 311.177 193.298 311.177 192.266C311.177 191.234 311.369 190.364 311.753 189.656C312.137 188.936 312.659 188.39 313.319 188.018C313.979 187.646 314.723 187.46 315.551 187.46C316.451 187.46 317.255 187.664 317.963 188.072C318.683 188.468 319.247 189.032 319.655 189.764C320.063 190.484 320.267 191.318 320.267 192.266C320.267 193.226 320.063 194.066 319.655 194.786C319.247 195.506 318.683 196.07 317.963 196.478C317.255 196.886 316.451 197.09 315.551 197.09ZM310.673 200.492V187.55H311.897V190.394L311.771 192.284L311.951 194.192V200.492H310.673ZM315.461 195.956C316.133 195.956 316.733 195.806 317.261 195.506C317.789 195.194 318.209 194.762 318.521 194.21C318.833 193.646 318.989 192.998 318.989 192.266C318.989 191.534 318.833 190.892 318.521 190.34C318.209 189.788 317.789 189.356 317.261 189.044C316.733 188.732 316.133 188.576 315.461 188.576C314.789 188.576 314.183 188.732 313.643 189.044C313.115 189.356 312.695 189.788 312.383 190.34C312.083 190.892 311.933 191.534 311.933 192.266C311.933 192.998 312.083 193.646 312.383 194.21C312.695 194.762 313.115 195.194 313.643 195.506C314.183 195.806 314.789 195.956 315.461 195.956ZM326.901 197.09C325.989 197.09 325.167 196.886 324.435 196.478C323.715 196.058 323.145 195.488 322.725 194.768C322.305 194.036 322.095 193.202 322.095 192.266C322.095 191.318 322.305 190.484 322.725 189.764C323.145 189.044 323.715 188.48 324.435 188.072C325.155 187.664 325.977 187.46 326.901 187.46C327.837 187.46 328.665 187.664 329.385 188.072C330.117 188.48 330.687 189.044 331.095 189.764C331.515 190.484 331.725 191.318 331.725 192.266C331.725 193.202 331.515 194.036 331.095 194.768C330.687 195.488 330.117 196.058 329.385 196.478C328.653 196.886 327.825 197.09 326.901 197.09ZM326.901 195.956C327.585 195.956 328.191 195.806 328.719 195.506C329.247 195.194 329.661 194.762 329.961 194.21C330.273 193.646 330.429 192.998 330.429 192.266C330.429 191.522 330.273 190.874 329.961 190.322C329.661 189.77 329.247 189.344 328.719 189.044C328.191 188.732 327.591 188.576 326.919 188.576C326.247 188.576 325.647 188.732 325.119 189.044C324.591 189.344 324.171 189.77 323.859 190.322C323.547 190.874 323.391 191.522 323.391 192.266C323.391 192.998 323.547 193.646 323.859 194.21C324.171 194.762 324.591 195.194 325.119 195.506C325.647 195.806 326.241 195.956 326.901 195.956ZM334.457 197V187.55H335.735V195.056L342.053 187.55H343.187V197H341.909V189.476L335.609 197H334.457ZM349.194 197.108C348.51 197.108 347.832 197.012 347.16 196.82C346.488 196.628 345.894 196.334 345.378 195.938L345.792 194.984C346.248 195.32 346.776 195.578 347.376 195.758C347.976 195.926 348.57 196.01 349.158 196.01C349.746 195.998 350.256 195.914 350.688 195.758C351.12 195.602 351.456 195.386 351.696 195.11C351.936 194.834 352.056 194.522 352.056 194.174C352.056 193.67 351.828 193.28 351.372 193.004C350.916 192.716 350.292 192.572 349.5 192.572H347.88V191.636H349.41C349.878 191.636 350.292 191.576 350.652 191.456C351.012 191.336 351.288 191.162 351.48 190.934C351.684 190.706 351.786 190.436 351.786 190.124C351.786 189.788 351.666 189.5 351.426 189.26C351.198 189.02 350.88 188.84 350.472 188.72C350.064 188.6 349.602 188.54 349.086 188.54C348.618 188.552 348.132 188.624 347.628 188.756C347.124 188.876 346.626 189.062 346.134 189.314L345.774 188.324C346.326 188.036 346.872 187.82 347.412 187.676C347.964 187.52 348.516 187.442 349.068 187.442C349.824 187.418 350.502 187.508 351.102 187.712C351.714 187.916 352.2 188.21 352.56 188.594C352.92 188.966 353.1 189.416 353.1 189.944C353.1 190.412 352.956 190.82 352.668 191.168C352.38 191.516 351.996 191.786 351.516 191.978C351.036 192.17 350.49 192.266 349.878 192.266L349.932 191.924C351.012 191.924 351.852 192.134 352.452 192.554C353.064 192.974 353.37 193.544 353.37 194.264C353.37 194.828 353.184 195.326 352.812 195.758C352.44 196.178 351.936 196.508 351.3 196.748C350.676 196.988 349.974 197.108 349.194 197.108ZM356.271 197V187.55H360.447C361.515 187.55 362.355 187.754 362.967 188.162C363.591 188.57 363.903 189.17 363.903 189.962C363.903 190.73 363.609 191.324 363.021 191.744C362.433 192.152 361.659 192.356 360.699 192.356L360.951 191.978C362.079 191.978 362.907 192.188 363.435 192.608C363.963 193.028 364.227 193.634 364.227 194.426C364.227 195.242 363.927 195.878 363.327 196.334C362.739 196.778 361.821 197 360.573 197H356.271ZM357.513 195.992H360.519C361.323 195.992 361.929 195.866 362.337 195.614C362.757 195.35 362.967 194.93 362.967 194.354C362.967 193.778 362.781 193.358 362.409 193.094C362.037 192.83 361.449 192.698 360.645 192.698H357.513V195.992ZM357.513 191.744H360.357C361.089 191.744 361.647 191.606 362.031 191.33C362.427 191.054 362.625 190.652 362.625 190.124C362.625 189.596 362.427 189.2 362.031 188.936C361.647 188.672 361.089 188.54 360.357 188.54H357.513V191.744ZM371.11 197.09C370.198 197.09 369.376 196.886 368.644 196.478C367.924 196.058 367.354 195.488 366.934 194.768C366.514 194.036 366.304 193.202 366.304 192.266C366.304 191.318 366.514 190.484 366.934 189.764C367.354 189.044 367.924 188.48 368.644 188.072C369.364 187.664 370.186 187.46 371.11 187.46C372.046 187.46 372.874 187.664 373.594 188.072C374.326 188.48 374.896 189.044 375.304 189.764C375.724 190.484 375.934 191.318 375.934 192.266C375.934 193.202 375.724 194.036 375.304 194.768C374.896 195.488 374.326 196.058 373.594 196.478C372.862 196.886 372.034 197.09 371.11 197.09ZM371.11 195.956C371.794 195.956 372.4 195.806 372.928 195.506C373.456 195.194 373.87 194.762 374.17 194.21C374.482 193.646 374.638 192.998 374.638 192.266C374.638 191.522 374.482 190.874 374.17 190.322C373.87 189.77 373.456 189.344 372.928 189.044C372.4 188.732 371.8 188.576 371.128 188.576C370.456 188.576 369.856 188.732 369.328 189.044C368.8 189.344 368.38 189.77 368.068 190.322C367.756 190.874 367.6 191.522 367.6 192.266C367.6 192.998 367.756 193.646 368.068 194.21C368.38 194.762 368.8 195.194 369.328 195.506C369.856 195.806 370.45 195.956 371.11 195.956ZM385.093 196.388V188.666H380.539L380.431 190.772C380.407 191.408 380.365 192.032 380.305 192.644C380.257 193.256 380.167 193.82 380.035 194.336C379.915 194.84 379.741 195.254 379.513 195.578C379.285 195.89 378.991 196.07 378.631 196.118L377.353 195.884C377.725 195.896 378.031 195.764 378.271 195.488C378.511 195.2 378.697 194.81 378.829 194.318C378.961 193.826 379.057 193.268 379.117 192.644C379.177 192.008 379.225 191.36 379.261 190.7L379.387 187.55H386.371V196.388H385.093ZM376.957 199.286V195.884H387.847V199.286H386.641V197H378.163V199.286H376.957ZM390.338 197V187.55H391.616V195.056L397.934 187.55H399.068V197H397.79V189.476L391.49 197H390.338ZM404.53 197V188.324L404.854 188.666H400.948V187.55H409.39V188.666H405.484L405.808 188.324V197H404.53ZM414.848 197.09C413.864 197.09 413 196.886 412.256 196.478C411.512 196.058 410.93 195.488 410.51 194.768C410.09 194.036 409.88 193.202 409.88 192.266C409.88 191.33 410.078 190.502 410.474 189.782C410.882 189.062 411.434 188.498 412.13 188.09C412.838 187.67 413.63 187.46 414.506 187.46C415.394 187.46 416.18 187.664 416.864 188.072C417.56 188.468 418.106 189.032 418.502 189.764C418.898 190.484 419.096 191.318 419.096 192.266C419.096 192.326 419.09 192.392 419.078 192.464C419.078 192.524 419.078 192.59 419.078 192.662H410.852V191.708H418.394L417.89 192.086C417.89 191.402 417.74 190.796 417.44 190.268C417.152 189.728 416.756 189.308 416.252 189.008C415.748 188.708 415.166 188.558 414.506 188.558C413.858 188.558 413.276 188.708 412.76 189.008C412.244 189.308 411.842 189.728 411.554 190.268C411.266 190.808 411.122 191.426 411.122 192.122V192.32C411.122 193.04 411.278 193.676 411.59 194.228C411.914 194.768 412.358 195.194 412.922 195.506C413.498 195.806 414.152 195.956 414.884 195.956C415.46 195.956 415.994 195.854 416.486 195.65C416.99 195.446 417.422 195.134 417.782 194.714L418.502 195.542C418.082 196.046 417.554 196.43 416.918 196.694C416.294 196.958 415.604 197.09 414.848 197.09ZM420.004 196.982L420.094 195.884C420.178 195.896 420.256 195.914 420.328 195.938C420.412 195.95 420.484 195.956 420.544 195.956C420.928 195.956 421.234 195.812 421.462 195.524C421.702 195.236 421.882 194.852 422.002 194.372C422.122 193.892 422.206 193.352 422.254 192.752C422.302 192.14 422.344 191.528 422.38 190.916L422.542 187.55H429.472V197H428.194V188.288L428.518 188.666H423.37L423.676 188.27L423.532 191.006C423.496 191.822 423.43 192.602 423.334 193.346C423.25 194.09 423.112 194.744 422.92 195.308C422.74 195.872 422.488 196.316 422.164 196.64C421.84 196.952 421.426 197.108 420.922 197.108C420.778 197.108 420.628 197.096 420.472 197.072C420.328 197.048 420.172 197.018 420.004 196.982ZM437.173 190.88C438.361 190.892 439.261 191.156 439.873 191.672C440.497 192.188 440.809 192.932 440.809 193.904C440.809 194.912 440.473 195.686 439.801 196.226C439.141 196.766 438.181 197.03 436.921 197.018L433.105 197V187.55H434.383V190.844L437.173 190.88ZM436.849 196.046C437.725 196.058 438.385 195.884 438.829 195.524C439.285 195.152 439.513 194.612 439.513 193.904C439.513 193.196 439.291 192.68 438.847 192.356C438.403 192.02 437.737 191.846 436.849 191.834L434.383 191.798V196.01L436.849 196.046ZM443.248 197V187.55H444.526V191.726H450.484V187.55H451.762V197H450.484V192.824H444.526V197H443.248ZM464.61 197V187.55H465.888V197H464.61ZM459.372 190.88C460.56 190.892 461.466 191.156 462.09 191.672C462.714 192.188 463.026 192.932 463.026 193.904C463.026 194.912 462.69 195.686 462.018 196.226C461.346 196.766 460.386 197.03 459.138 197.018L455.394 197V187.55H456.672V190.844L459.372 190.88ZM459.048 196.046C459.936 196.058 460.602 195.884 461.046 195.524C461.502 195.152 461.73 194.612 461.73 193.904C461.73 193.196 461.508 192.68 461.064 192.356C460.62 192.02 459.948 191.846 459.048 191.834L456.672 191.798V196.01L459.048 196.046ZM473.577 197.09C472.593 197.09 471.729 196.886 470.985 196.478C470.241 196.058 469.659 195.488 469.239 194.768C468.819 194.036 468.609 193.202 468.609 192.266C468.609 191.33 468.807 190.502 469.203 189.782C469.611 189.062 470.163 188.498 470.859 188.09C471.567 187.67 472.359 187.46 473.235 187.46C474.123 187.46 474.909 187.664 475.593 188.072C476.289 188.468 476.835 189.032 477.231 189.764C477.627 190.484 477.825 191.318 477.825 192.266C477.825 192.326 477.819 192.392 477.807 192.464C477.807 192.524 477.807 192.59 477.807 192.662H469.581V191.708H477.123L476.619 192.086C476.619 191.402 476.469 190.796 476.169 190.268C475.881 189.728 475.485 189.308 474.981 189.008C474.477 188.708 473.895 188.558 473.235 188.558C472.587 188.558 472.005 188.708 471.489 189.008C470.973 189.308 470.571 189.728 470.283 190.268C469.995 190.808 469.851 191.426 469.851 192.122V192.32C469.851 193.04 470.007 193.676 470.319 194.228C470.643 194.768 471.087 195.194 471.651 195.506C472.227 195.806 472.881 195.956 473.613 195.956C474.189 195.956 474.723 195.854 475.215 195.65C475.719 195.446 476.151 195.134 476.511 194.714L477.231 195.542C476.811 196.046 476.283 196.43 475.647 196.694C475.023 196.958 474.333 197.09 473.577 197.09ZM485.365 197V187.55H486.643V195.056L492.961 187.55H494.095V197H492.817V189.476L486.517 197H485.365ZM78.818 224V214.55H80.114L84.398 221.804H83.858L88.214 214.55H89.402V224H88.232V216.008L88.466 216.116L84.398 222.848H83.822L79.718 216.044L79.988 215.99V224H78.818ZM98.9067 224V221.912L98.8527 221.57V218.078C98.8527 217.274 98.6247 216.656 98.1687 216.224C97.7247 215.792 97.0587 215.576 96.1707 215.576C95.5587 215.576 94.9767 215.678 94.4247 215.882C93.8727 216.086 93.4047 216.356 93.0207 216.692L92.4447 215.738C92.9247 215.33 93.5007 215.018 94.1727 214.802C94.8447 214.574 95.5527 214.46 96.2967 214.46C97.5207 214.46 98.4627 214.766 99.1227 215.378C99.7947 215.978 100.131 216.896 100.131 218.132V224H98.9067ZM95.6487 224.09C94.9407 224.09 94.3227 223.976 93.7947 223.748C93.2787 223.508 92.8827 223.184 92.6067 222.776C92.3307 222.356 92.1927 221.876 92.1927 221.336C92.1927 220.844 92.3067 220.4 92.5347 220.004C92.7747 219.596 93.1587 219.272 93.6867 219.032C94.2267 218.78 94.9467 218.654 95.8467 218.654H99.1047V219.608H95.8827C94.9707 219.608 94.3347 219.77 93.9747 220.094C93.6267 220.418 93.4527 220.82 93.4527 221.3C93.4527 221.84 93.6627 222.272 94.0827 222.596C94.5027 222.92 95.0907 223.082 95.8467 223.082C96.5667 223.082 97.1847 222.92 97.7007 222.596C98.2287 222.26 98.6127 221.78 98.8527 221.156L99.1407 222.038C98.9007 222.662 98.4807 223.16 97.8807 223.532C97.2927 223.904 96.5487 224.09 95.6487 224.09ZM107.493 224.09C106.557 224.09 105.717 223.886 104.973 223.478C104.241 223.058 103.665 222.488 103.245 221.768C102.825 221.036 102.615 220.202 102.615 219.266C102.615 218.318 102.825 217.484 103.245 216.764C103.665 216.044 104.241 215.48 104.973 215.072C105.717 214.664 106.557 214.46 107.493 214.46C108.297 214.46 109.023 214.616 109.671 214.928C110.319 215.24 110.829 215.708 111.201 216.332L110.247 216.98C109.923 216.5 109.521 216.146 109.041 215.918C108.561 215.69 108.039 215.576 107.475 215.576C106.803 215.576 106.197 215.732 105.657 216.044C105.117 216.344 104.691 216.77 104.379 217.322C104.067 217.874 103.911 218.522 103.911 219.266C103.911 220.01 104.067 220.658 104.379 221.21C104.691 221.762 105.117 222.194 105.657 222.506C106.197 222.806 106.803 222.956 107.475 222.956C108.039 222.956 108.561 222.842 109.041 222.614C109.521 222.386 109.923 222.038 110.247 221.57L111.201 222.218C110.829 222.83 110.319 223.298 109.671 223.622C109.023 223.934 108.297 224.09 107.493 224.09ZM119.885 222.884L119.597 223.226V214.55H120.875V223.226L120.533 222.884H125.807L125.465 223.226V214.55H126.743V224H113.675V214.55H114.953V223.226L114.629 222.884H119.885ZM132.175 224V215.324L132.499 215.666H128.593V214.55H137.035V215.666H133.129L133.453 215.324V224H132.175ZM144.75 224V221.912L144.696 221.57V218.078C144.696 217.274 144.468 216.656 144.012 216.224C143.568 215.792 142.902 215.576 142.014 215.576C141.402 215.576 140.82 215.678 140.268 215.882C139.716 216.086 139.248 216.356 138.864 216.692L138.288 215.738C138.768 215.33 139.344 215.018 140.016 214.802C140.688 214.574 141.396 214.46 142.14 214.46C143.364 214.46 144.306 214.766 144.966 215.378C145.638 215.978 145.974 216.896 145.974 218.132V224H144.75ZM141.492 224.09C140.784 224.09 140.166 223.976 139.638 223.748C139.122 223.508 138.726 223.184 138.45 222.776C138.174 222.356 138.036 221.876 138.036 221.336C138.036 220.844 138.15 220.4 138.378 220.004C138.618 219.596 139.002 219.272 139.53 219.032C140.07 218.78 140.79 218.654 141.69 218.654H144.948V219.608H141.726C140.814 219.608 140.178 219.77 139.818 220.094C139.47 220.418 139.296 220.82 139.296 221.3C139.296 221.84 139.506 222.272 139.926 222.596C140.346 222.92 140.934 223.082 141.69 223.082C142.41 223.082 143.028 222.92 143.544 222.596C144.072 222.26 144.456 221.78 144.696 221.156L144.984 222.038C144.744 222.662 144.324 223.16 143.724 223.532C143.136 223.904 142.392 224.09 141.492 224.09ZM153.625 224.108C152.857 224.108 152.173 223.982 151.573 223.73C150.985 223.478 150.481 223.094 150.061 222.578C149.641 222.062 149.323 221.426 149.107 220.67C148.891 219.902 148.783 219.014 148.783 218.006C148.783 217.106 148.867 216.32 149.035 215.648C149.203 214.964 149.437 214.376 149.737 213.884C150.037 213.392 150.385 212.978 150.781 212.642C151.189 212.294 151.627 212.018 152.095 211.814C152.575 211.598 153.067 211.436 153.571 211.328L157.819 210.338L158.035 211.526L154.039 212.426C153.787 212.486 153.481 212.57 153.121 212.678C152.773 212.786 152.413 212.948 152.041 213.164C151.681 213.38 151.345 213.68 151.033 214.064C150.721 214.448 150.469 214.946 150.277 215.558C150.097 216.158 150.007 216.908 150.007 217.808C150.007 218 150.013 218.156 150.025 218.276C150.037 218.384 150.049 218.504 150.061 218.636C150.085 218.756 150.103 218.936 150.115 219.176L149.557 218.708C149.689 217.976 149.959 217.34 150.367 216.8C150.775 216.248 151.285 215.822 151.897 215.522C152.521 215.21 153.211 215.054 153.967 215.054C154.843 215.054 155.623 215.246 156.307 215.63C156.991 216.002 157.525 216.524 157.909 217.196C158.305 217.868 158.503 218.648 158.503 219.536C158.503 220.412 158.299 221.198 157.891 221.894C157.495 222.59 156.931 223.136 156.199 223.532C155.467 223.916 154.609 224.108 153.625 224.108ZM153.769 223.046C154.441 223.046 155.035 222.896 155.551 222.596C156.067 222.284 156.469 221.864 156.757 221.336C157.057 220.808 157.207 220.214 157.207 219.554C157.207 218.906 157.057 218.33 156.757 217.826C156.469 217.322 156.067 216.926 155.551 216.638C155.035 216.338 154.435 216.188 153.751 216.188C153.079 216.188 152.485 216.332 151.969 216.62C151.453 216.896 151.045 217.286 150.745 217.79C150.457 218.294 150.313 218.876 150.313 219.536C150.313 220.196 150.457 220.79 150.745 221.318C151.045 221.846 151.453 222.266 151.969 222.578C152.497 222.89 153.097 223.046 153.769 223.046ZM161.242 224V214.55H162.52V222.056L168.838 214.55H169.972V224H168.694V216.476L162.394 224H161.242ZM178.512 224.09C177.696 224.09 176.958 223.904 176.298 223.532C175.638 223.148 175.11 222.602 174.714 221.894C174.33 221.174 174.138 220.298 174.138 219.266C174.138 218.234 174.33 217.364 174.714 216.656C175.098 215.936 175.62 215.39 176.28 215.018C176.94 214.646 177.684 214.46 178.512 214.46C179.412 214.46 180.216 214.664 180.924 215.072C181.644 215.468 182.208 216.032 182.616 216.764C183.024 217.484 183.228 218.318 183.228 219.266C183.228 220.226 183.024 221.066 182.616 221.786C182.208 222.506 181.644 223.07 180.924 223.478C180.216 223.886 179.412 224.09 178.512 224.09ZM173.634 227.492V214.55H174.858V217.394L174.732 219.284L174.912 221.192V227.492H173.634ZM178.422 222.956C179.094 222.956 179.694 222.806 180.222 222.506C180.75 222.194 181.17 221.762 181.482 221.21C181.794 220.646 181.95 219.998 181.95 219.266C181.95 218.534 181.794 217.892 181.482 217.34C181.17 216.788 180.75 216.356 180.222 216.044C179.694 215.732 179.094 215.576 178.422 215.576C177.75 215.576 177.144 215.732 176.604 216.044C176.076 216.356 175.656 216.788 175.344 217.34C175.044 217.892 174.894 218.534 174.894 219.266C174.894 219.998 175.044 220.646 175.344 221.21C175.656 221.762 176.076 222.194 176.604 222.506C177.144 222.806 177.75 222.956 178.422 222.956ZM185.873 227.582C185.429 227.582 185.003 227.51 184.595 227.366C184.199 227.222 183.857 227.006 183.569 226.718L184.163 225.764C184.403 225.992 184.661 226.166 184.937 226.286C185.225 226.418 185.543 226.484 185.891 226.484C186.311 226.484 186.671 226.364 186.971 226.124C187.283 225.896 187.577 225.488 187.853 224.9L188.465 223.514L188.609 223.316L192.497 214.55H193.757L189.023 225.134C188.759 225.746 188.465 226.232 188.141 226.592C187.829 226.952 187.487 227.204 187.115 227.348C186.743 227.504 186.329 227.582 185.873 227.582ZM188.393 224.27L184.037 214.55H185.369L189.221 223.226L188.393 224.27ZM199.534 224.09C198.55 224.09 197.686 223.886 196.942 223.478C196.198 223.058 195.616 222.488 195.196 221.768C194.776 221.036 194.566 220.202 194.566 219.266C194.566 218.33 194.764 217.502 195.16 216.782C195.568 216.062 196.12 215.498 196.816 215.09C197.524 214.67 198.316 214.46 199.192 214.46C200.08 214.46 200.866 214.664 201.55 215.072C202.246 215.468 202.792 216.032 203.188 216.764C203.584 217.484 203.782 218.318 203.782 219.266C203.782 219.326 203.776 219.392 203.764 219.464C203.764 219.524 203.764 219.59 203.764 219.662H195.538V218.708H203.08L202.576 219.086C202.576 218.402 202.426 217.796 202.126 217.268C201.838 216.728 201.442 216.308 200.938 216.008C200.434 215.708 199.852 215.558 199.192 215.558C198.544 215.558 197.962 215.708 197.446 216.008C196.93 216.308 196.528 216.728 196.24 217.268C195.952 217.808 195.808 218.426 195.808 219.122V219.32C195.808 220.04 195.964 220.676 196.276 221.228C196.6 221.768 197.044 222.194 197.608 222.506C198.184 222.806 198.838 222.956 199.57 222.956C200.146 222.956 200.68 222.854 201.172 222.65C201.676 222.446 202.108 222.134 202.468 221.714L203.188 222.542C202.768 223.046 202.24 223.43 201.604 223.694C200.98 223.958 200.29 224.09 199.534 224.09ZM206.611 224V214.55H207.907L212.191 221.804H211.651L216.007 214.55H217.195V224H216.025V216.008L216.259 216.116L212.191 222.848H211.615L207.511 216.044L207.781 215.99V224H206.611ZM230.048 224V214.55H231.326V224H230.048ZM224.81 217.88C225.998 217.892 226.904 218.156 227.528 218.672C228.152 219.188 228.464 219.932 228.464 220.904C228.464 221.912 228.128 222.686 227.456 223.226C226.784 223.766 225.824 224.03 224.576 224.018L220.832 224V214.55H222.11V217.844L224.81 217.88ZM224.486 223.046C225.374 223.058 226.04 222.884 226.484 222.524C226.94 222.152 227.168 221.612 227.168 220.904C227.168 220.196 226.946 219.68 226.502 219.356C226.058 219.02 225.386 218.846 224.486 218.834L222.11 218.798V223.01L224.486 223.046ZM239.014 224.09C238.03 224.09 237.166 223.886 236.422 223.478C235.678 223.058 235.096 222.488 234.676 221.768C234.256 221.036 234.046 220.202 234.046 219.266C234.046 218.33 234.244 217.502 234.64 216.782C235.048 216.062 235.6 215.498 236.296 215.09C237.004 214.67 237.796 214.46 238.672 214.46C239.56 214.46 240.346 214.664 241.03 215.072C241.726 215.468 242.272 216.032 242.668 216.764C243.064 217.484 243.262 218.318 243.262 219.266C243.262 219.326 243.256 219.392 243.244 219.464C243.244 219.524 243.244 219.59 243.244 219.662H235.018V218.708H242.56L242.056 219.086C242.056 218.402 241.906 217.796 241.606 217.268C241.318 216.728 240.922 216.308 240.418 216.008C239.914 215.708 239.332 215.558 238.672 215.558C238.024 215.558 237.442 215.708 236.926 216.008C236.41 216.308 236.008 216.728 235.72 217.268C235.432 217.808 235.288 218.426 235.288 219.122V219.32C235.288 220.04 235.444 220.676 235.756 221.228C236.08 221.768 236.524 222.194 237.088 222.506C237.664 222.806 238.318 222.956 239.05 222.956C239.626 222.956 240.16 222.854 240.652 222.65C241.156 222.446 241.588 222.134 241.948 221.714L242.668 222.542C242.248 223.046 241.72 223.43 241.084 223.694C240.46 223.958 239.77 224.09 239.014 224.09ZM250.802 224V214.55H254.978C256.046 214.55 256.886 214.754 257.498 215.162C258.122 215.57 258.434 216.17 258.434 216.962C258.434 217.73 258.14 218.324 257.552 218.744C256.964 219.152 256.19 219.356 255.23 219.356L255.482 218.978C256.61 218.978 257.438 219.188 257.966 219.608C258.494 220.028 258.758 220.634 258.758 221.426C258.758 222.242 258.458 222.878 257.858 223.334C257.27 223.778 256.352 224 255.104 224H250.802ZM252.044 222.992H255.05C255.854 222.992 256.46 222.866 256.868 222.614C257.288 222.35 257.498 221.93 257.498 221.354C257.498 220.778 257.312 220.358 256.94 220.094C256.568 219.83 255.98 219.698 255.176 219.698H252.044V222.992ZM252.044 218.744H254.888C255.62 218.744 256.178 218.606 256.562 218.33C256.958 218.054 257.156 217.652 257.156 217.124C257.156 216.596 256.958 216.2 256.562 215.936C256.178 215.672 255.62 215.54 254.888 215.54H252.044V218.744ZM265.804 224.09C264.82 224.09 263.956 223.886 263.212 223.478C262.468 223.058 261.886 222.488 261.466 221.768C261.046 221.036 260.836 220.202 260.836 219.266C260.836 218.33 261.034 217.502 261.43 216.782C261.838 216.062 262.39 215.498 263.086 215.09C263.794 214.67 264.586 214.46 265.462 214.46C266.35 214.46 267.136 214.664 267.82 215.072C268.516 215.468 269.062 216.032 269.458 216.764C269.854 217.484 270.052 218.318 270.052 219.266C270.052 219.326 270.046 219.392 270.034 219.464C270.034 219.524 270.034 219.59 270.034 219.662H261.808V218.708H269.35L268.846 219.086C268.846 218.402 268.696 217.796 268.396 217.268C268.108 216.728 267.712 216.308 267.208 216.008C266.704 215.708 266.122 215.558 265.462 215.558C264.814 215.558 264.232 215.708 263.716 216.008C263.2 216.308 262.798 216.728 262.51 217.268C262.222 217.808 262.078 218.426 262.078 219.122V219.32C262.078 220.04 262.234 220.676 262.546 221.228C262.87 221.768 263.314 222.194 263.878 222.506C264.454 222.806 265.108 222.956 265.84 222.956C266.416 222.956 266.95 222.854 267.442 222.65C267.946 222.446 268.378 222.134 268.738 221.714L269.458 222.542C269.038 223.046 268.51 223.43 267.874 223.694C267.25 223.958 266.56 224.09 265.804 224.09ZM277.129 224.108C276.361 224.108 275.677 223.982 275.077 223.73C274.489 223.478 273.985 223.094 273.565 222.578C273.145 222.062 272.827 221.426 272.611 220.67C272.395 219.902 272.287 219.014 272.287 218.006C272.287 217.106 272.371 216.32 272.539 215.648C272.707 214.964 272.941 214.376 273.241 213.884C273.541 213.392 273.889 212.978 274.285 212.642C274.693 212.294 275.131 212.018 275.599 211.814C276.079 211.598 276.571 211.436 277.075 211.328L281.323 210.338L281.539 211.526L277.543 212.426C277.291 212.486 276.985 212.57 276.625 212.678C276.277 212.786 275.917 212.948 275.545 213.164C275.185 213.38 274.849 213.68 274.537 214.064C274.225 214.448 273.973 214.946 273.781 215.558C273.601 216.158 273.511 216.908 273.511 217.808C273.511 218 273.517 218.156 273.529 218.276C273.541 218.384 273.553 218.504 273.565 218.636C273.589 218.756 273.607 218.936 273.619 219.176L273.061 218.708C273.193 217.976 273.463 217.34 273.871 216.8C274.279 216.248 274.789 215.822 275.401 215.522C276.025 215.21 276.715 215.054 277.471 215.054C278.347 215.054 279.127 215.246 279.811 215.63C280.495 216.002 281.029 216.524 281.413 217.196C281.809 217.868 282.007 218.648 282.007 219.536C282.007 220.412 281.803 221.198 281.395 221.894C280.999 222.59 280.435 223.136 279.703 223.532C278.971 223.916 278.113 224.108 277.129 224.108ZM277.273 223.046C277.945 223.046 278.539 222.896 279.055 222.596C279.571 222.284 279.973 221.864 280.261 221.336C280.561 220.808 280.711 220.214 280.711 219.554C280.711 218.906 280.561 218.33 280.261 217.826C279.973 217.322 279.571 216.926 279.055 216.638C278.539 216.338 277.939 216.188 277.255 216.188C276.583 216.188 275.989 216.332 275.473 216.62C274.957 216.896 274.549 217.286 274.249 217.79C273.961 218.294 273.817 218.876 273.817 219.536C273.817 220.196 273.961 220.79 274.249 221.318C274.549 221.846 274.957 222.266 275.473 222.578C276.001 222.89 276.601 223.046 277.273 223.046ZM284.184 219.68V218.564H288.9V219.68H284.184ZM291.795 224V214.55H300.291V224H299.013V215.324L299.337 215.666H292.749L293.073 215.324V224H291.795ZM308.801 224.09C307.985 224.09 307.247 223.904 306.587 223.532C305.927 223.148 305.399 222.602 305.003 221.894C304.619 221.174 304.427 220.298 304.427 219.266C304.427 218.234 304.619 217.364 305.003 216.656C305.387 215.936 305.909 215.39 306.569 215.018C307.229 214.646 307.973 214.46 308.801 214.46C309.701 214.46 310.505 214.664 311.213 215.072C311.933 215.468 312.497 216.032 312.905 216.764C313.313 217.484 313.517 218.318 313.517 219.266C313.517 220.226 313.313 221.066 312.905 221.786C312.497 222.506 311.933 223.07 311.213 223.478C310.505 223.886 309.701 224.09 308.801 224.09ZM303.923 227.492V214.55H305.147V217.394L305.021 219.284L305.201 221.192V227.492H303.923ZM308.711 222.956C309.383 222.956 309.983 222.806 310.511 222.506C311.039 222.194 311.459 221.762 311.771 221.21C312.083 220.646 312.239 219.998 312.239 219.266C312.239 218.534 312.083 217.892 311.771 217.34C311.459 216.788 311.039 216.356 310.511 216.044C309.983 215.732 309.383 215.576 308.711 215.576C308.039 215.576 307.433 215.732 306.893 216.044C306.365 216.356 305.945 216.788 305.633 217.34C305.333 217.892 305.183 218.534 305.183 219.266C305.183 219.998 305.333 220.646 305.633 221.21C305.945 221.762 306.365 222.194 306.893 222.506C307.433 222.806 308.039 222.956 308.711 222.956ZM316.263 224V214.55H317.541V222.056L323.859 214.55H324.993V224H323.715V216.476L317.415 224H316.263ZM326.928 223.982L327.018 222.884C327.102 222.896 327.18 222.914 327.252 222.938C327.336 222.95 327.408 222.956 327.468 222.956C327.852 222.956 328.158 222.812 328.386 222.524C328.626 222.236 328.806 221.852 328.926 221.372C329.046 220.892 329.13 220.352 329.178 219.752C329.226 219.14 329.268 218.528 329.304 217.916L329.466 214.55H336.396V224H335.118V215.288L335.442 215.666H330.294L330.6 215.27L330.456 218.006C330.42 218.822 330.354 219.602 330.258 220.346C330.174 221.09 330.036 221.744 329.844 222.308C329.664 222.872 329.412 223.316 329.088 223.64C328.764 223.952 328.35 224.108 327.846 224.108C327.702 224.108 327.552 224.096 327.396 224.072C327.252 224.048 327.096 224.018 326.928 223.982ZM343.917 224.09C343.005 224.09 342.183 223.886 341.451 223.478C340.731 223.058 340.161 222.488 339.741 221.768C339.321 221.036 339.111 220.202 339.111 219.266C339.111 218.318 339.321 217.484 339.741 216.764C340.161 216.044 340.731 215.48 341.451 215.072C342.171 214.664 342.993 214.46 343.917 214.46C344.853 214.46 345.681 214.664 346.401 215.072C347.133 215.48 347.703 216.044 348.111 216.764C348.531 217.484 348.741 218.318 348.741 219.266C348.741 220.202 348.531 221.036 348.111 221.768C347.703 222.488 347.133 223.058 346.401 223.478C345.669 223.886 344.841 224.09 343.917 224.09ZM343.917 222.956C344.601 222.956 345.207 222.806 345.735 222.506C346.263 222.194 346.677 221.762 346.977 221.21C347.289 220.646 347.445 219.998 347.445 219.266C347.445 218.522 347.289 217.874 346.977 217.322C346.677 216.77 346.263 216.344 345.735 216.044C345.207 215.732 344.607 215.576 343.935 215.576C343.263 215.576 342.663 215.732 342.135 216.044C341.607 216.344 341.187 216.77 340.875 217.322C340.563 217.874 340.407 218.522 340.407 219.266C340.407 219.998 340.563 220.646 340.875 221.21C341.187 221.762 341.607 222.194 342.135 222.506C342.663 222.806 343.257 222.956 343.917 222.956ZM362.352 224L359.112 219.32L360.174 218.69L363.882 224H362.352ZM356.988 219.788V218.69H359.976V219.788H356.988ZM360.3 219.41L359.076 219.23L362.226 214.55H363.612L360.3 219.41ZM351.156 224H349.626L353.334 218.69L354.378 219.32L351.156 224ZM357.384 224H356.106V214.55H357.384V224ZM356.502 219.788H353.532V218.69H356.502V219.788ZM353.226 219.41L349.896 214.55H351.282L354.414 219.23L353.226 219.41ZM369.725 224.09C368.741 224.09 367.877 223.886 367.133 223.478C366.389 223.058 365.807 222.488 365.387 221.768C364.967 221.036 364.757 220.202 364.757 219.266C364.757 218.33 364.955 217.502 365.351 216.782C365.759 216.062 366.311 215.498 367.007 215.09C367.715 214.67 368.507 214.46 369.383 214.46C370.271 214.46 371.057 214.664 371.741 215.072C372.437 215.468 372.983 216.032 373.379 216.764C373.775 217.484 373.973 218.318 373.973 219.266C373.973 219.326 373.967 219.392 373.955 219.464C373.955 219.524 373.955 219.59 373.955 219.662H365.729V218.708H373.271L372.767 219.086C372.767 218.402 372.617 217.796 372.317 217.268C372.029 216.728 371.633 216.308 371.129 216.008C370.625 215.708 370.043 215.558 369.383 215.558C368.735 215.558 368.153 215.708 367.637 216.008C367.121 216.308 366.719 216.728 366.431 217.268C366.143 217.808 365.999 218.426 365.999 219.122V219.32C365.999 220.04 366.155 220.676 366.467 221.228C366.791 221.768 367.235 222.194 367.799 222.506C368.375 222.806 369.029 222.956 369.761 222.956C370.337 222.956 370.871 222.854 371.363 222.65C371.867 222.446 372.299 222.134 372.659 221.714L373.379 222.542C372.959 223.046 372.431 223.43 371.795 223.694C371.171 223.958 370.481 224.09 369.725 224.09ZM376.802 224V214.55H378.08V218.726H384.038V214.55H385.316V224H384.038V219.824H378.08V224H376.802ZM388.949 224V214.55H390.227V222.056L396.545 214.55H397.679V224H396.401V216.476L390.101 224H388.949ZM407.443 224V220.598L407.677 220.868H404.473C403.261 220.868 402.313 220.604 401.629 220.076C400.945 219.548 400.603 218.78 400.603 217.772C400.603 216.692 400.969 215.888 401.701 215.36C402.433 214.82 403.411 214.55 404.635 214.55H408.613V224H407.443ZM400.531 224L403.123 220.364H404.455L401.917 224H400.531ZM407.443 220.22V215.288L407.677 215.666H404.671C403.795 215.666 403.111 215.834 402.619 216.17C402.139 216.506 401.899 217.052 401.899 217.808C401.899 219.212 402.793 219.914 404.581 219.914H407.677L407.443 220.22ZM412.347 224.09C412.083 224.09 411.855 223.994 411.663 223.802C411.483 223.61 411.393 223.376 411.393 223.1C411.393 222.812 411.483 222.578 411.663 222.398C411.855 222.218 412.083 222.128 412.347 222.128C412.611 222.128 412.833 222.218 413.013 222.398C413.205 222.578 413.301 222.812 413.301 223.1C413.301 223.376 413.205 223.61 413.013 223.802C412.833 223.994 412.611 224.09 412.347 224.09Z" fill="#0C2836"/>
</g>
<defs>
<filter id="filter0_d_16096_3436" x="0" y="0" width="575" height="335" filterUnits="userSpaceOnUse" color-interpolation-filters="sRGB">
<feFlood flood-opacity="0" result="BackgroundImageFix"/>
<feColorMatrix in="SourceAlpha" type="matrix" values="0 0 0 0 0 0 0 0 0 0 0 0 0 0 0 0 0 0 127 0" result="hardAlpha"/>
<feMorphology radius="2" operator="dilate" in="SourceAlpha" result="effect1_dropShadow_16096_3436"/>
<feOffset/>
<feGaussianBlur stdDeviation="17.5"/>
<feComposite in2="hardAlpha" operator="out"/>
<feColorMatrix type="matrix" values="0 0 0 0 0.0470588 0 0 0 0 0.156863 0 0 0 0 0.211765 0 0 0 0.12 0"/>
<feBlend mode="normal" in2="BackgroundImageFix" result="effect1_dropShadow_16096_3436"/>
<feBlend mode="normal" in="SourceGraphic" in2="effect1_dropShadow_16096_3436" result="shape"/>
</filter>
<clipPath id="clip0_16096_3436">
<rect width="75" height="75" fill="white" transform="translate(77 77)"/>
</clipPath>
</defs>
</svg>
