<svg width="75" height="75" viewBox="0 0 75 75" fill="none" xmlns="http://www.w3.org/2000/svg">
<g clip-path="url(#clip0_16096_12610)">
<path d="M9.79834 33.098H12.1443L14.6053 41.424H14.6513L17.2503 33.098H19.5273L22.1723 41.424H22.2183L24.6793 33.098H26.9563L23.3453 44H21.0913L18.4003 35.812H18.3543L15.6863 44H13.4323L9.79834 33.098Z" fill="black"/>
<path d="M29.4274 33.098H31.7734L34.2344 41.424H34.2804L36.8794 33.098H39.1564L41.8014 41.424H41.8474L44.3084 33.098H46.5854L42.9744 44H40.7204L38.0294 35.812H37.9834L35.3154 44H33.0614L29.4274 33.098Z" fill="black"/>
<path d="M49.0565 33.098H51.4025L53.8635 41.424H53.9095L56.5085 33.098H58.7855L61.4305 41.424H61.4765L63.9375 33.098H66.2145L62.6035 44H60.3495L57.6585 35.812H57.6125L54.9445 44H52.6905L49.0565 33.098Z" fill="black"/>
<path fill-rule="evenodd" clip-rule="evenodd" d="M37.5 73C57.1061 73 73 57.1061 73 37.5C73 17.8939 57.1061 2 37.5 2C17.8939 2 2 17.8939 2 37.5C2 57.1061 17.8939 73 37.5 73ZM37.5 75C58.2107 75 75 58.2107 75 37.5C75 16.7893 58.2107 0 37.5 0C16.7893 0 0 16.7893 0 37.5C0 58.2107 16.7893 75 37.5 75Z" fill="black"/>
</g>
<defs>
<clipPath id="clip0_16096_12610">
<rect width="75" height="75" fill="white"/>
</clipPath>
</defs>
</svg>
